<svg id="Logo" xmlns="http://www.w3.org/2000/svg" width="39" height="39" viewBox="0 0 39 39">
  <rect id="Rectangle_1" data-name="Rectangle 1" width="39" height="39" transform="translate(0)"/>
  <path id="Path_1" data-name="Path 1" d="M14.3-7.23a7.819,7.819,0,0,1-.53,2.92,6.707,6.707,0,0,1-1.49,2.29A6.666,6.666,0,0,1,9.97-.53,8.117,8.117,0,0,1,6.98,0H1.46V-14.46H6.98a8.05,8.05,0,0,1,2.99.535,6.763,6.763,0,0,1,2.31,1.49,6.654,6.654,0,0,1,1.49,2.285A7.819,7.819,0,0,1,14.3-7.23Zm-2.75,0a6.636,6.636,0,0,0-.32-2.135,4.524,4.524,0,0,0-.91-1.6A3.923,3.923,0,0,0,8.885-11.97a4.937,4.937,0,0,0-1.905-.35H4.17V-2.14H6.98a4.937,4.937,0,0,0,1.905-.35,3.923,3.923,0,0,0,1.435-1,4.524,4.524,0,0,0,.91-1.6A6.636,6.636,0,0,0,11.55-7.23Zm11.93-.86a1.231,1.231,0,0,1-.215.22.5.5,0,0,1-.305.08.679.679,0,0,1-.37-.115q-.18-.115-.43-.26a3.215,3.215,0,0,0-.6-.26,2.734,2.734,0,0,0-.855-.115,2.608,2.608,0,0,0-1.14.235,2.161,2.161,0,0,0-.815.675,3.042,3.042,0,0,0-.485,1.065,5.719,5.719,0,0,0-.16,1.415,5.548,5.548,0,0,0,.175,1.46,3.122,3.122,0,0,0,.505,1.075,2.173,2.173,0,0,0,.8.66,2.424,2.424,0,0,0,1.06.225,2.628,2.628,0,0,0,.955-.145,3.013,3.013,0,0,0,.615-.32q.25-.175.435-.32a.656.656,0,0,1,.415-.145.5.5,0,0,1,.45.23l.71.9a4.465,4.465,0,0,1-.89.805,4.811,4.811,0,0,1-1,.52A5.052,5.052,0,0,1,21.28.07a7.565,7.565,0,0,1-1.09.08A4.551,4.551,0,0,1,18.4-.205,4.179,4.179,0,0,1,16.935-1.24a4.988,4.988,0,0,1-.99-1.665A6.433,6.433,0,0,1,15.58-5.15a6.525,6.525,0,0,1,.325-2.1,4.746,4.746,0,0,1,.955-1.67,4.379,4.379,0,0,1,1.56-1.1,5.374,5.374,0,0,1,2.14-.4,5.091,5.091,0,0,1,2.015.37A4.924,4.924,0,0,1,24.13-8.99Z" transform="translate(10 34)" fill="#fff"/>
</svg>
